<svg preserveAspectRatio="none" width="100%" height="100%" overflow="visible" style="display: block;" viewBox="0 0 16 16" fill="none" xmlns="http://www.w3.org/2000/svg">
<g id="image-02">
<path id="Vector" d="M2 10.6667L4.97978 7.68687C5.20615 7.46054 5.51319 7.33333 5.83333 7.33333C6.15348 7.33333 6.46051 7.46054 6.68687 7.68687L9.33333 10.3333M9.33333 10.3333L10.3333 11.3333M9.33333 10.3333L10.6465 9.0202C10.8728 8.79387 11.1799 8.66667 11.5 8.66667C11.8201 8.66667 12.1272 8.79387 12.3535 9.0202L14 10.6667" stroke="#3A393B" stroke-width="1.2" stroke-linecap="round" stroke-linejoin="round"/>
<path id="Vector_2" d="M10.3333 5.33333C10.5174 5.33333 10.6667 5.18409 10.6667 5C10.6667 4.81591 10.5174 4.66667 10.3333 4.66667M10.3333 5.33333C10.1493 5.33333 10 5.18409 10 5C10 4.81591 10.1493 4.66667 10.3333 4.66667M10.3333 5.33333V4.66667" stroke="#3A393B" stroke-width="1.2" stroke-linecap="round" stroke-linejoin="round"/>
<path id="Vector_3" d="M2.46531 13.1648C1.66667 12.2297 1.66667 10.8198 1.66667 8C1.66667 5.18018 1.66667 3.77027 2.46531 2.83517C2.57872 2.70239 2.70239 2.57872 2.83517 2.46531C3.77027 1.66667 5.18018 1.66667 8 1.66667C10.8198 1.66667 12.2297 1.66667 13.1648 2.46531C13.2976 2.57872 13.4213 2.70239 13.5347 2.83517C14.3333 3.77027 14.3333 5.18018 14.3333 8C14.3333 10.8198 14.3333 12.2297 13.5347 13.1648C13.4213 13.2976 13.2976 13.4213 13.1648 13.5347C12.2297 14.3333 10.8198 14.3333 8 14.3333C5.18018 14.3333 3.77027 14.3333 2.83517 13.5347C2.70239 13.4213 2.57872 13.2976 2.46531 13.1648Z" stroke="#3A393B" stroke-width="1.2" stroke-linecap="round" stroke-linejoin="round"/>
</g>
</svg>
