<svg preserveAspectRatio="none" width="100%" height="100%" overflow="visible" style="display: block;" viewBox="0 0 13.932 10.449" fill="none" xmlns="http://www.w3.org/2000/svg">
<g id="Group">
<path id="Vector" d="M0 1.30612C0 0.959717 0.137609 0.6275 0.382554 0.382554C0.6275 0.137609 0.959717 0 1.30612 0H12.6259C12.9723 0 13.3045 0.137609 13.5494 0.382554C13.7944 0.6275 13.932 0.959717 13.932 1.30612V9.14286C13.932 9.48926 13.7944 9.82148 13.5494 10.0664C13.3045 10.3114 12.9723 10.449 12.6259 10.449H1.30612C0.959717 10.449 0.6275 10.3114 0.382554 10.0664C0.137609 9.82148 0 9.48926 0 9.14286L0 1.30612ZM1.30612 0.870748C1.19065 0.870748 1.07991 0.916618 0.998266 0.998266C0.916618 1.07991 0.870748 1.19065 0.870748 1.30612V9.14286C0.870748 9.25833 0.916618 9.36906 0.998266 9.45071C1.07991 9.53236 1.19065 9.57823 1.30612 9.57823H12.6259C12.7413 9.57823 12.8521 9.53236 12.9337 9.45071C13.0154 9.36906 13.0612 9.25833 13.0612 9.14286V1.30612C13.0612 1.19065 13.0154 1.07991 12.9337 0.998266C12.8521 0.916618 12.7413 0.870748 12.6259 0.870748H1.30612Z" fill="#3A393B"/>
<path id="Vector_2" d="M1.74133 2.17699C1.74133 2.06152 1.7872 1.95078 1.86885 1.86913C1.9505 1.78749 2.06124 1.74162 2.1767 1.74162H4.78895C4.90442 1.74162 5.01516 1.78749 5.09681 1.86913C5.17845 1.95078 5.22432 2.06152 5.22432 2.17699C5.22432 2.29246 5.17845 2.4032 5.09681 2.48485C5.01516 2.56649 4.90442 2.61236 4.78895 2.61236H2.61208V4.78924C2.61208 4.9047 2.56621 5.01544 2.48456 5.09709C2.40291 5.17874 2.29217 5.22461 2.1767 5.22461C2.06124 5.22461 1.9505 5.17874 1.86885 5.09709C1.7872 5.01544 1.74133 4.9047 1.74133 4.78924V2.17699ZM12.1903 8.27223C12.1903 8.3877 12.1444 8.49844 12.0628 8.58008C11.9811 8.66173 11.8704 8.7076 11.7549 8.7076H9.14269C9.02722 8.7076 8.91648 8.66173 8.83483 8.58008C8.75319 8.49844 8.70732 8.3877 8.70732 8.27223C8.70732 8.15676 8.75319 8.04602 8.83483 7.96437C8.91648 7.88272 9.02722 7.83685 9.14269 7.83685H11.3196V5.65998C11.3196 5.54451 11.3654 5.43378 11.4471 5.35213C11.5287 5.27048 11.6395 5.22461 11.7549 5.22461C11.8704 5.22461 11.9811 5.27048 12.0628 5.35213C12.1444 5.43378 12.1903 5.54451 12.1903 5.65998V8.27223Z" fill="#3A393B"/>
</g>
</svg>
