<svg preserveAspectRatio="none" width="100%" height="100%" overflow="visible" style="display: block;" viewBox="0 0 10 10" fill="none" xmlns="http://www.w3.org/2000/svg">
<path id="Vector" d="M0.5 1.5H4M4 1.5C4 2.05228 4.44772 2.5 5 2.5C5.55228 2.5 6 2.05228 6 1.5M4 1.5C4 0.947715 4.44772 0.5 5 0.5C5.55228 0.5 6 0.947715 6 1.5M0.5 5H5M8.5 5H9.5M8.5 5C8.5 5.55228 8.05228 6 7.5 6C6.94772 6 6.5 5.55228 6.5 5C6.5 4.44772 6.94772 4 7.5 4C8.05228 4 8.5 4.44772 8.5 5ZM6 1.5H9.5M5 8.5H9.5M0.5 8.5H1.5M1.5 8.5C1.5 9.05228 1.94772 9.5 2.5 9.5C3.05228 9.5 3.5 9.05228 3.5 8.5C3.5 7.94772 3.05228 7.5 2.5 7.5C1.94772 7.5 1.5 7.94772 1.5 8.5Z" stroke="#3A393B" stroke-linecap="round"/>
</svg>
