<svg preserveAspectRatio="none" width="100%" height="100%" overflow="visible" style="display: block;" viewBox="0 0 28.5148 28.5148" fill="none" xmlns="http://www.w3.org/2000/svg">
<g id="logomark" filter="url(#filter0_i_0_112)">
<path id="Vector" fill-rule="evenodd" clip-rule="evenodd" d="M18.2179 8.33012C17.0456 7.54681 15.6673 7.12871 14.2574 7.12871V0C17.0773 0 19.8338 0.836184 22.1784 2.40281C24.5231 3.96943 26.3504 6.19614 27.4296 8.80132C28.5087 11.4065 28.791 14.2733 28.2409 17.0389C27.6908 19.8046 26.3329 22.345 24.3389 24.3389C22.345 26.3329 19.8046 27.6908 17.0389 28.2409C14.2733 28.791 11.4065 28.5087 8.80132 27.4296C6.19613 26.3504 3.96943 24.5231 2.40281 22.1784C0.836184 19.8338 0 17.0773 0 14.2574H7.12871C7.12871 15.6673 7.54681 17.0456 8.33012 18.2179C9.11342 19.3902 10.2268 20.3039 11.5294 20.8435C12.832 21.3831 14.2653 21.5242 15.6482 21.2491C17.031 20.9741 18.3012 20.2952 19.2982 19.2982C20.2952 18.3012 20.9741 17.031 21.2491 15.6482C21.5242 14.2653 21.3831 12.832 20.8435 11.5294C20.3039 10.2268 19.3902 9.11342 18.2179 8.33012Z" fill="#3A393B"/>
<path id="Vector_2" fill-rule="evenodd" clip-rule="evenodd" d="M7.12871 3.76747e-06C7.12871 0.936157 6.94432 1.86315 6.58607 2.72804C6.22781 3.59294 5.70272 4.3788 5.04076 5.04076C4.3788 5.70273 3.59294 6.22782 2.72804 6.58608C1.86314 6.94432 0.93615 7.12871 3.11603e-07 7.12871L0 14.2574C1.87231 14.2574 3.72629 13.8887 5.45608 13.1722C7.18589 12.4556 8.75762 11.4054 10.0815 10.0815C11.4054 8.75762 12.4556 7.18589 13.1722 5.45608C13.8887 3.72629 14.2574 1.87231 14.2574 0L7.12871 3.76747e-06Z" fill="#3A393B"/>
</g>
<defs>
<filter id="filter0_i_0_112" x="0" y="0" width="28.5148" height="28.5148" filterUnits="userSpaceOnUse" color-interpolation-filters="sRGB">
<feFlood flood-opacity="0" result="BackgroundImageFix"/>
<feBlend mode="normal" in="SourceGraphic" in2="BackgroundImageFix" result="shape"/>
<feColorMatrix in="SourceAlpha" type="matrix" values="0 0 0 0 0 0 0 0 0 0 0 0 0 0 0 0 0 0 127 0" result="hardAlpha"/>
<feOffset/>
<feGaussianBlur stdDeviation="0.5"/>
<feComposite in2="hardAlpha" operator="arithmetic" k2="-1" k3="1"/>
<feColorMatrix type="matrix" values="0 0 0 0 0 0 0 0 0 0 0 0 0 0 0 0 0 0 0.5 0"/>
<feBlend mode="normal" in2="shape" result="effect1_innerShadow_0_112"/>
</filter>
</defs>
</svg>
