<svg preserveAspectRatio="none" width="100%" height="100%" overflow="visible" style="display: block;" viewBox="0 0 12.6667 11.5" fill="none" xmlns="http://www.w3.org/2000/svg">
<path id="Vector 474" d="M7.57369 0.5H9.22176C9.57605 0.5 9.91343 0.653418 10.1488 0.921559L11.8534 2.86337C12.2489 3.31401 12.2725 3.98571 11.9094 4.46361L7.31647 10.5098C6.81996 11.1634 5.84671 11.1634 5.3502 10.5098L0.757222 4.46361C0.394186 3.98571 0.417726 3.31401 0.813304 2.86337L2.51786 0.921559C2.75324 0.653418 3.09062 0.5 3.44491 0.5H5.2308M7.57369 0.5L8.81404 3.64M7.57369 0.5H5.2308M8.81404 3.64H11.9149M8.81404 3.64L6.33333 10.862L3.85263 3.64M8.81404 3.64H3.85263M5.2308 0.5L3.85263 3.64M0.751745 3.64H3.85263" stroke="#28303F" stroke-linecap="round" stroke-linejoin="round"/>
</svg>
