<svg preserveAspectRatio="none" width="100%" height="100%" overflow="visible" style="display: block;" viewBox="0 0 18 18" fill="none" xmlns="http://www.w3.org/2000/svg">
<g id="Frame">
<path id="Vector" fill-rule="evenodd" clip-rule="evenodd" d="M9.2493 2.8125H4.62571C3.96375 2.81249 3.43269 2.81249 3.00325 2.84758C2.56201 2.88363 2.17875 2.95951 1.82553 3.13948C1.26104 3.4271 0.802102 3.88604 0.51448 4.45053C0.334507 4.80375 0.258628 5.18701 0.222577 5.62825C0.187491 6.05769 0.187494 6.58874 0.1875 7.25071V10.7493C0.187494 11.4113 0.187491 11.9423 0.222577 12.3718C0.258628 12.813 0.334507 13.1962 0.51448 13.5495C0.802102 14.1139 1.26104 14.5729 1.82553 14.8605C2.17875 15.0405 2.56201 15.1164 3.00325 15.1524C3.43268 15.1875 3.96374 15.1875 4.62571 15.1875H9.2493C9.91125 15.1875 10.4423 15.1875 10.8718 15.1524C11.313 15.1164 11.6962 15.0405 12.0495 14.8605C12.6139 14.5729 13.0729 14.1139 13.3605 13.5495C13.5405 13.1962 13.6164 12.813 13.6524 12.3718C13.6753 12.0921 13.6832 11.7693 13.686 11.3953L15.7426 13.2649C16.5375 13.9876 17.8125 13.4235 17.8125 12.3492V5.65094C17.8125 4.57662 16.5375 4.01261 15.7426 4.73527L13.686 6.60486C13.6832 6.23081 13.6753 5.90798 13.6524 5.62825C13.6164 5.18701 13.5405 4.80375 13.3605 4.45053C13.0729 3.88604 12.6139 3.4271 12.0495 3.13948C11.6962 2.95951 11.313 2.88363 10.8718 2.84758C10.4423 2.81249 9.91125 2.81249 9.2493 2.8125ZM13.6875 8.12392V9.87622L16.4993 12.4324C16.5226 12.4537 16.542 12.46 16.5573 12.4621C16.5754 12.4646 16.5977 12.4622 16.6205 12.4521C16.6433 12.442 16.6602 12.4271 16.6705 12.4121C16.6792 12.3993 16.6875 12.3808 16.6875 12.3492V5.65094C16.6875 5.61939 16.6792 5.60083 16.6705 5.58811C16.6602 5.57305 16.6433 5.55814 16.6205 5.54806C16.5977 5.53798 16.5754 5.53553 16.5573 5.53803C16.542 5.54014 16.5226 5.54648 16.4993 5.5677L13.6875 8.12392ZM12.5625 7.275C12.5625 6.58315 12.562 6.0981 12.5311 5.71986C12.5008 5.34819 12.4439 5.12946 12.3581 4.96126C12.1784 4.60846 11.8915 4.32163 11.5387 4.14186C11.3705 4.05616 11.1518 3.99921 10.7801 3.96884C10.4019 3.93793 9.91687 3.9375 9.225 3.9375H4.65C3.95815 3.9375 3.4731 3.93793 3.09486 3.96884C2.72319 3.99921 2.50446 4.05616 2.33626 4.14186C1.98346 4.32163 1.69663 4.60846 1.51686 4.96126C1.43116 5.12946 1.37421 5.34819 1.34384 5.71986C1.31293 6.0981 1.3125 6.58315 1.3125 7.275V10.725C1.3125 11.4169 1.31293 11.9019 1.34384 12.2801C1.37421 12.6518 1.43116 12.8705 1.51686 13.0387C1.69663 13.3915 1.98346 13.6784 2.33626 13.8581C2.50446 13.9439 2.72319 14.0008 3.09486 14.0312C3.4731 14.0621 3.95815 14.0625 4.65 14.0625H9.225C9.91687 14.0625 10.4019 14.0621 10.7801 14.0312C11.1518 14.0008 11.3705 13.9439 11.5387 13.8581C11.8915 13.6784 12.1784 13.3915 12.3581 13.0387C12.4439 12.8705 12.5008 12.6518 12.5311 12.2801C12.562 11.9019 12.5625 11.4169 12.5625 10.725V7.275Z" fill="#AAAEB4"/>
</g>
</svg>
