<svg preserveAspectRatio="none" width="100%" height="100%" overflow="visible" style="display: block;" viewBox="0 0 18 18" fill="none" xmlns="http://www.w3.org/2000/svg">
<g id="Frame" clip-path="url(#clip0_0_100)">
<path id="Vector" fill-rule="evenodd" clip-rule="evenodd" d="M8.95703 0.9375H9.04312C10.7744 0.937492 12.1312 0.937485 13.1898 1.07981C14.2733 1.22549 15.1284 1.5295 15.7995 2.2006C16.4706 2.87171 16.7746 3.72673 16.9202 4.81028C17.0626 5.86889 17.0626 7.22567 17.0626 8.95695V9.04305C17.0626 9.37672 17.0626 9.69652 17.0615 10.0029C17.0631 10.0272 17.063 10.0519 17.0613 10.0767C17.0564 11.3266 17.0329 12.3516 16.9202 13.1897C16.7746 14.2732 16.4706 15.1283 15.7995 15.7994C15.1284 16.4705 14.2733 16.7745 13.1898 16.9202C12.6364 16.9945 12.0017 17.0301 11.2745 17.047C11.2056 17.0636 11.1323 17.0674 11.0578 17.056C11.0499 17.0548 11.0421 17.0534 11.0343 17.0519C10.433 17.0625 9.77115 17.0625 9.04312 17.0625H8.95703C7.22575 17.0625 5.86897 17.0625 4.81035 16.9202C3.7268 16.7745 2.87178 16.4705 2.20067 15.7994C1.52956 15.1283 1.22556 14.2732 1.07988 13.1897C0.937552 12.1311 0.93756 10.7743 0.937575 9.04305V8.95695C0.937567 8.50237 0.937567 8.07352 0.94014 7.6692C0.936307 7.62967 0.936697 7.5906 0.940965 7.5525C0.949365 6.46888 0.978547 5.56401 1.07988 4.81028C1.22556 3.72673 1.52956 2.87171 2.20067 2.2006C2.87178 1.5295 3.7268 1.22549 4.81035 1.07981C5.86897 0.937485 7.22575 0.937492 8.95703 0.9375ZM2.06338 8.10277C2.06261 8.38695 2.06257 8.68567 2.06257 9C2.06257 10.7836 2.06377 12.0648 2.19485 13.0398C2.32375 13.9986 2.56893 14.5766 2.99617 15.0039C3.42341 15.4312 4.00145 15.6763 4.96025 15.8052C5.93524 15.9363 7.2164 15.9375 9.00007 15.9375C9.6033 15.9375 10.1491 15.9373 10.645 15.9321C11.0522 11.2876 7.01362 7.39196 2.31557 8.06655L2.06338 8.10277ZM11.7758 15.9058C12.2493 15.8865 12.667 15.8554 13.0399 15.8052C13.9987 15.6763 14.5767 15.4312 15.004 15.0039C15.4312 14.5766 15.6763 13.9986 15.8053 13.0398C15.8955 12.3688 15.9242 11.5528 15.9333 10.5278L15.6928 10.4945C13.8782 10.2433 12.2278 11.096 11.3135 12.477C11.6934 13.5406 11.8642 14.7004 11.7758 15.9058ZM10.7906 11.3052C9.18442 8.33767 5.84643 6.42302 2.15567 6.95298L2.07342 6.96479C2.08754 6.17257 2.12005 5.51653 2.19485 4.96018C2.32375 4.00138 2.56893 3.42334 2.99617 2.9961C3.42341 2.56885 4.00145 2.32369 4.96025 2.19478C5.93524 2.06369 7.2164 2.0625 9.00007 2.0625C10.7837 2.0625 12.0649 2.06369 13.0399 2.19478C13.9987 2.32369 14.5767 2.56885 15.004 2.9961C15.4312 3.42334 15.6763 4.00138 15.8053 4.96018C15.9364 5.93517 15.9376 7.21633 15.9376 9C15.9376 9.13372 15.9376 9.2646 15.9375 9.3927L15.8471 9.38017C13.8301 9.10087 11.9773 9.915 10.7906 11.3052ZM12.0001 5.0625C11.4823 5.0625 11.0626 5.48223 11.0626 6C11.0626 6.51777 11.4823 6.9375 12.0001 6.9375C12.5179 6.9375 12.9376 6.51777 12.9376 6C12.9376 5.48223 12.5179 5.0625 12.0001 5.0625ZM9.93757 6C9.93757 4.86091 10.861 3.9375 12.0001 3.9375C13.1392 3.9375 14.0626 4.86091 14.0626 6C14.0626 7.13908 13.1392 8.0625 12.0001 8.0625C10.861 8.0625 9.93757 7.13908 9.93757 6Z" fill="#AAAEB4"/>
</g>
<defs>
<clipPath id="clip0_0_100">
<rect width="18" height="18" fill="white"/>
</clipPath>
</defs>
</svg>
