<svg preserveAspectRatio="none" width="100%" height="100%" overflow="visible" style="display: block;" viewBox="0 0 18 18" fill="none" xmlns="http://www.w3.org/2000/svg">
<g id="Frame" clip-path="url(#clip0_0_102)">
<path id="Vector" fill-rule="evenodd" clip-rule="evenodd" d="M6.1875 13.5C6.1875 13.1893 6.43934 12.9375 6.75 12.9375H11.25C11.5607 12.9375 11.8125 13.1893 11.8125 13.5C11.8125 13.8107 11.5607 14.0625 11.25 14.0625H6.75C6.43934 14.0625 6.1875 13.8107 6.1875 13.5Z" fill="#AAAEB4"/>
<path id="Vector_2" fill-rule="evenodd" clip-rule="evenodd" d="M6.52451 0.937507H11.4753C11.6402 0.937462 11.7666 0.937425 11.8771 0.949282C12.8927 1.05828 13.6701 1.8923 13.7173 2.9026C14.6104 3.16928 15.2467 3.99562 15.2582 4.94338C15.709 5.07863 16.0978 5.29196 16.416 5.63574C16.905 6.16393 17.0566 6.81487 17.0623 7.57522C17.0679 8.30625 16.9376 9.23002 16.7758 10.3772L16.4466 12.7124C16.3201 13.6095 16.2174 14.3382 16.0576 14.9093C15.8903 15.5067 15.6439 15.9983 15.1875 16.3762C14.7347 16.751 14.1976 16.9127 13.5626 16.9889C12.9487 17.0625 12.1765 17.0625 11.2149 17.0625H6.78515C5.82358 17.0625 5.05126 17.0625 4.43735 16.9889C3.80245 16.9127 3.26529 16.751 2.81252 16.3762C2.35614 15.9983 2.10964 15.5067 1.94242 14.9093C1.78257 14.3382 1.67984 13.6095 1.55338 12.7124L1.22414 10.3772C1.06238 9.23002 0.932122 8.30625 0.937672 7.57522C0.94344 6.81487 1.09498 6.16393 1.58397 5.63574C1.90216 5.29204 2.29084 5.07873 2.74146 4.94347C2.75293 3.99562 3.38938 3.16919 4.28254 2.90255C4.32971 1.89228 5.10707 1.05828 6.12269 0.949282C6.2332 0.937425 6.35962 0.937462 6.52451 0.937507ZM3.89176 4.74589C4.58611 4.68749 5.4373 4.6875 6.46195 4.68751H11.538C12.5625 4.6875 13.4136 4.68749 14.1079 4.74586C14.005 4.29013 13.5979 3.93751 13.0963 3.93751H4.9034C4.40172 3.93751 3.99463 4.29014 3.89176 4.74589ZM11.7571 2.06786C12.1697 2.11215 12.4958 2.41975 12.5758 2.81251H5.42407C5.50396 2.41975 5.83008 2.11215 6.24274 2.06786C6.28495 2.06333 6.3451 2.06251 6.55574 2.06251H11.4441C11.6547 2.06251 11.7148 2.06333 11.7571 2.06786ZM2.4095 6.40002C2.63668 6.15463 2.97829 5.99188 3.64209 5.90359C4.31794 5.81369 5.22268 5.81251 6.50429 5.81251H11.4957C12.7773 5.81251 13.682 5.81369 14.3579 5.90359C15.0217 5.99188 15.3633 6.15463 15.5905 6.40002C15.8124 6.6397 15.9327 6.96586 15.9373 7.58377C15.9422 8.22135 15.8251 9.0621 15.6553 10.2662L15.3382 12.5162C15.2048 13.4618 15.1114 14.1158 14.9742 14.606C14.842 15.0782 14.6865 15.3304 14.47 15.5096C14.2499 15.6919 13.9543 15.8088 13.4286 15.8719C12.8896 15.9366 12.1849 15.9375 11.1784 15.9375H6.82152C5.8151 15.9375 5.11045 15.9366 4.57139 15.8719C4.04563 15.8088 3.7501 15.6919 3.52998 15.5096C3.31346 15.3304 3.15793 15.0782 3.02578 14.606C2.88855 14.1158 2.79517 13.4618 2.66185 12.5162L2.34462 10.2662C2.17486 9.0621 2.0578 8.22135 2.06263 7.58377C2.06733 6.96586 2.18761 6.6397 2.4095 6.40002Z" fill="#AAAEB4"/>
</g>
<defs>
<clipPath id="clip0_0_102">
<rect width="18" height="18" fill="white"/>
</clipPath>
</defs>
</svg>
