<svg preserveAspectRatio="none" width="100%" height="100%" overflow="visible" style="display: block;" viewBox="0 0 18 18" fill="none" xmlns="http://www.w3.org/2000/svg">
<g id="Frame" clip-path="url(#clip0_0_109)">
<path id="Vector" d="M7.08502 11.548C6.83544 11.363 6.48316 11.4153 6.29816 11.6649C6.11317 11.9144 6.16552 12.2668 6.4151 12.4517C7.14441 12.9923 8.03633 13.3124 9.00008 13.3124C9.96383 13.3124 10.8557 12.9923 11.585 12.4517C11.8346 12.2668 11.887 11.9144 11.702 11.6649C11.5169 11.4153 11.1647 11.363 10.9151 11.548C10.3688 11.9528 9.7095 12.1874 9.00008 12.1874C8.29065 12.1874 7.63125 11.9528 7.08502 11.548Z" fill="#AAAEB4"/>
<path id="Vector_2" fill-rule="evenodd" clip-rule="evenodd" d="M9 0.9375C8.45618 0.9375 7.96005 1.08683 7.41696 1.34032C6.89124 1.58571 6.28329 1.94787 5.52137 2.40175L4.42966 3.05207C3.59033 3.55204 2.92151 3.95045 2.41511 4.33143C1.89235 4.72472 1.49999 5.1297 1.2443 5.66304C0.988492 6.19664 0.919155 6.7551 0.941392 7.40688C0.962925 8.03775 1.07329 8.80477 1.21167 9.76642L1.43094 11.2903C1.60898 12.5277 1.75026 13.5096 1.96134 14.2741C2.17892 15.0622 2.48764 15.6877 3.04474 16.1674C3.60138 16.6467 4.26738 16.8611 5.08225 16.9633C5.87365 17.0625 6.87211 17.0625 8.13173 17.0625H9.86827C11.1279 17.0625 12.1264 17.0625 12.9178 16.9633C13.7326 16.8611 14.3986 16.6467 14.9553 16.1674C15.5123 15.6877 15.8211 15.0622 16.0387 14.2741C16.2497 13.5097 16.391 12.5277 16.5691 11.2903L16.7883 9.76642C16.9267 8.8047 17.0371 8.03775 17.0586 7.40688C17.0809 6.7551 17.0115 6.19664 16.7557 5.66304C16.5 5.1297 16.1077 4.72472 15.5849 4.33143C15.0785 3.95045 14.4097 3.55204 13.5703 3.05207L12.4787 2.40175C11.7167 1.94787 11.1088 1.58571 10.583 1.34032C10.0399 1.08683 9.54383 0.9375 9 0.9375ZM6.07168 3.38341C6.86482 2.91094 7.42442 2.57836 7.89277 2.35975C8.3496 2.14652 8.6781 2.0625 9 2.0625C9.32198 2.0625 9.6504 2.14652 10.1072 2.35975C10.5756 2.57836 11.1352 2.91094 11.9283 3.38341L12.967 4.00211C13.8402 4.5223 14.4564 4.89025 14.9086 5.23042C15.3499 5.56246 15.5916 5.8372 15.7412 6.14938C15.8908 6.46129 15.9529 6.82003 15.9343 7.36852C15.9151 7.93087 15.8142 8.63722 15.6702 9.63832L15.4611 11.0913C15.2762 12.3762 15.1441 13.2871 14.9542 13.9747C14.7687 14.6467 14.5454 15.0357 14.2212 15.3148C13.8965 15.5944 13.4757 15.7595 12.7778 15.847C12.0645 15.9364 11.1366 15.9375 9.82958 15.9375H8.17042C6.86343 15.9375 5.93554 15.9364 5.22225 15.847C4.52434 15.7595 4.10347 15.5944 3.77881 15.3148C3.45461 15.0357 3.23128 14.6467 3.04576 13.9747C2.85593 13.2871 2.72377 12.3762 2.5389 11.0913L2.32982 9.63825C2.18578 8.63722 2.08493 7.93087 2.06574 7.36852C2.04703 6.82003 2.10922 6.46129 2.25875 6.14938C2.40841 5.8372 2.6501 5.56246 3.09145 5.23042C3.54361 4.89025 4.15982 4.5223 5.03305 4.00211L6.07168 3.38341Z" fill="#AAAEB4"/>
</g>
<defs>
<clipPath id="clip0_0_109">
<rect width="18" height="18" fill="white"/>
</clipPath>
</defs>
</svg>
