<svg preserveAspectRatio="none" width="100%" height="100%" overflow="visible" style="display: block;" viewBox="0 0 18 18" fill="none" xmlns="http://www.w3.org/2000/svg">
<g id="Frame" clip-path="url(#clip0_0_91)">
<path id="Vector" fill-rule="evenodd" clip-rule="evenodd" d="M8.20882 0.9375H9.79118C10.8169 0.937485 11.6436 0.93747 12.2939 1.02489C12.9689 1.11565 13.5373 1.30982 13.9888 1.76126C14.2126 1.98511 14.3731 2.23772 14.4892 2.51784C15.1883 2.60541 15.7752 2.79775 16.2388 3.2613C16.6902 3.71274 16.8844 4.28114 16.9751 4.95622C17.0625 5.60645 17.0625 6.43319 17.0625 7.45889V10.5412C17.0625 11.5669 17.0625 12.3936 16.9751 13.0438C16.8844 13.7189 16.6902 14.2873 16.2388 14.7388C15.7752 15.2023 15.1883 15.3946 14.4892 15.4822C14.3731 15.7623 14.2126 16.0149 13.9888 16.2388C13.5373 16.6902 12.9689 16.8844 12.2939 16.9751C11.6436 17.0625 10.8169 17.0625 9.79118 17.0625H8.20882C7.18315 17.0625 6.35641 17.0625 5.70619 16.9751C5.0311 16.8844 4.4627 16.6902 4.01126 16.2388C3.78743 16.0149 3.62685 15.7623 3.51076 15.4822C2.8117 15.3946 2.22482 15.2023 1.76126 14.7388C1.30982 14.2873 1.11565 13.7189 1.02489 13.0438C0.93747 12.3936 0.937485 11.5669 0.9375 10.5412V7.45889C0.937485 6.43319 0.93747 5.60645 1.02489 4.95622C1.11565 4.28114 1.30982 3.71274 1.76126 3.2613C2.22481 2.79775 2.81169 2.60541 3.51072 2.51784C3.62682 2.23772 3.78741 1.98511 4.01126 1.76126C4.4627 1.30982 5.0311 1.11565 5.70619 1.02489C6.35641 0.93747 7.18315 0.937485 8.20882 0.9375ZM3.24633 3.70535C2.91811 3.78445 2.7135 3.90005 2.55676 4.05679C2.34919 4.26437 2.21385 4.5558 2.13986 5.10613C2.06369 5.67264 2.0625 6.42348 2.0625 7.50008V10.5001C2.0625 11.5766 2.06369 12.3275 2.13986 12.8939C2.21385 13.4443 2.34919 13.7357 2.55676 13.9432C2.71351 14.1 2.91812 14.2157 3.24634 14.2947C3.18748 13.6863 3.18748 12.9401 3.1875 12.0412V5.95884C3.18748 5.05989 3.18748 4.31377 3.24633 3.70535ZM14.7537 14.2947C15.0819 14.2157 15.2865 14.1 15.4432 13.9432C15.6508 13.7357 15.7861 13.4443 15.8602 12.8939C15.9363 12.3275 15.9375 11.5766 15.9375 10.5001V7.50008C15.9375 6.42348 15.9363 5.67264 15.8602 5.10613C15.7861 4.5558 15.6508 4.26437 15.4432 4.05679C15.2865 3.90005 15.0819 3.78445 14.7537 3.70535C14.8125 4.31377 14.8125 5.0599 14.8125 5.95885V12.0412C14.8125 12.9401 14.8125 13.6863 14.7537 14.2947ZM5.85609 2.13986C5.30576 2.21385 5.01433 2.34919 4.80676 2.55676C4.59919 2.76433 4.46385 3.05576 4.38986 3.60609C4.31369 4.1726 4.3125 4.92343 4.3125 6V12C4.3125 13.0766 4.31369 13.8274 4.38986 14.3939C4.46385 14.9443 4.59919 15.2356 4.80676 15.4432C5.01433 15.6508 5.30576 15.7861 5.85609 15.8602C6.4226 15.9363 7.17344 15.9375 8.25 15.9375H9.75C10.8266 15.9375 11.5774 15.9363 12.1439 15.8602C12.6943 15.7861 12.9856 15.6508 13.1932 15.4432C13.4008 15.2356 13.5361 14.9443 13.6102 14.3939C13.6863 13.8274 13.6875 13.0766 13.6875 12V6C13.6875 4.92344 13.6863 4.1726 13.6102 3.60609C13.5361 3.05576 13.4008 2.76433 13.1932 2.55676C12.9856 2.34919 12.6943 2.21385 12.1439 2.13986C11.5774 2.06369 10.8266 2.0625 9.75 2.0625H8.25C7.17344 2.0625 6.4226 2.06369 5.85609 2.13986ZM6.1875 6.75C6.1875 6.43934 6.43934 6.1875 6.75 6.1875H11.25C11.5607 6.1875 11.8125 6.43934 11.8125 6.75C11.8125 7.06066 11.5607 7.3125 11.25 7.3125H6.75C6.43934 7.3125 6.1875 7.06066 6.1875 6.75ZM6.1875 9.75C6.1875 9.43935 6.43934 9.1875 6.75 9.1875H11.25C11.5607 9.1875 11.8125 9.43935 11.8125 9.75C11.8125 10.0607 11.5607 10.3125 11.25 10.3125H6.75C6.43934 10.3125 6.1875 10.0607 6.1875 9.75ZM6.1875 12.75C6.1875 12.4394 6.43934 12.1875 6.75 12.1875H9C9.31065 12.1875 9.5625 12.4394 9.5625 12.75C9.5625 13.0607 9.31065 13.3125 9 13.3125H6.75C6.43934 13.3125 6.1875 13.0607 6.1875 12.75Z" fill="#AAAEB4"/>
</g>
<defs>
<clipPath id="clip0_0_91">
<rect width="18" height="18" fill="white"/>
</clipPath>
</defs>
</svg>
