<svg preserveAspectRatio="none" width="100%" height="100%" overflow="visible" style="display: block;" viewBox="0 0 18 18" fill="none" xmlns="http://www.w3.org/2000/svg">
<g id="Frame">
<path id="Vector" d="M15.8182 5.23465C15.1807 4.52965 14.1157 4.17715 12.5707 4.17715H12.3907V4.14715C12.3907 2.88715 12.3907 1.32715 9.57075 1.32715H8.43075C5.61076 1.32715 5.61076 2.89465 5.61076 4.14715V4.18465H5.43076C3.87826 4.18465 2.82076 4.53715 2.18326 5.24215C1.44076 6.06715 1.46326 7.17715 1.53826 7.93463L1.54576 7.98713L1.60385 8.5971C1.61455 8.70945 1.67505 8.81093 1.76947 8.87273C1.94932 8.9904 2.25033 9.18443 2.43076 9.28463C2.53576 9.35213 2.64826 9.41213 2.76076 9.47213C4.04326 10.1771 5.45326 10.6496 6.88576 10.8821C6.95326 11.5871 7.26076 12.4121 8.90325 12.4121C10.5457 12.4121 10.8682 11.5946 10.9207 10.8671C12.4507 10.6196 13.9282 10.0871 15.2632 9.30713C15.3082 9.28463 15.3382 9.26213 15.3757 9.23963C15.6733 9.07148 15.982 8.86425 16.2634 8.6613C16.3481 8.6001 16.4023 8.5056 16.4139 8.40173L16.4257 8.29463L16.4632 7.94213C16.4707 7.89713 16.4707 7.85963 16.4782 7.80713C16.5382 7.04965 16.5232 6.01465 15.8182 5.23465ZM9.81825 10.3721C9.81825 11.1671 9.81825 11.2871 8.89575 11.2871C7.97325 11.2871 7.97325 11.1446 7.97325 10.3796V9.43463H9.81825V10.3721ZM6.68326 4.17715V4.14715C6.68326 2.87215 6.68326 2.39965 8.43075 2.39965H9.57075C11.3182 2.39965 11.3182 2.87965 11.3182 4.14715V4.18465H6.68326V4.17715Z" fill="#3A393B"/>
<path id="Vector_2" d="M15.655 10.3012C15.9202 10.175 16.2256 10.3852 16.1991 10.6777L15.9298 13.643C15.7723 15.143 15.1574 16.673 11.8574 16.673H6.14238C2.84238 16.673 2.22738 15.143 2.06988 13.6505L1.81435 10.8397C1.78807 10.5505 2.08654 10.3405 2.35101 10.4602C3.20557 10.8469 4.78293 11.5328 5.75731 11.788C5.88054 11.8203 5.98021 11.9085 6.03417 12.0239C6.4894 12.9975 7.47672 13.5155 8.90235 13.5155C10.314 13.5155 11.3138 12.9775 11.7705 12.0016C11.8245 11.8861 11.9243 11.7979 12.0476 11.7655C13.0822 11.4932 14.7612 10.7264 15.655 10.3012Z" fill="#3A393B"/>
</g>
</svg>
