<svg preserveAspectRatio="none" width="100%" height="100%" overflow="visible" style="display: block;" viewBox="0 0 18 18" fill="none" xmlns="http://www.w3.org/2000/svg">
<g id="Frame">
<path id="Vector" d="M8.44434 2.16504C8.79009 1.97646 9.20992 1.97645 9.55567 2.16504L9.55762 2.16602L14.2598 4.7002C14.4356 4.79619 14.5527 4.98318 14.5527 5.2207C14.5527 5.42878 14.4626 5.59791 14.3223 5.70117L14.2588 5.74121L9.55762 8.27539L9.55567 8.27734C9.38351 8.37125 9.18838 8.41891 9 8.41895C8.81164 8.41895 8.6165 8.3712 8.44434 8.27734L8.44238 8.27539L3.74024 5.74121H3.74121C3.56646 5.64622 3.44727 5.45319 3.44727 5.2207C3.44734 4.98276 3.56486 4.79604 3.74121 4.7002L3.74024 4.69922L8.44238 2.16602L8.44434 2.16504Z" stroke="#AAAEB4"/>
<path id="Vector_2" d="M2.27344 7.87305C2.41686 7.78426 2.59334 7.76398 2.76172 7.82227L2.83301 7.85156L7.20898 10.04L7.21094 10.041C7.67556 10.2706 7.96547 10.739 7.95996 11.2676V15.4053C7.95987 15.6112 7.85892 15.7913 7.69141 15.8926H7.69043C7.59806 15.9488 7.49299 15.9775 7.3877 15.9775C7.29827 15.9775 7.21022 15.957 7.13184 15.918L2.75879 13.7275C2.29009 13.4895 2.00004 13.0175 2 12.4951V8.3623C2.00006 8.16274 2.09642 7.98538 2.27344 7.87305Z" stroke="#AAAEB4"/>
<path id="Vector_3" d="M15.1792 7.8457C15.3419 7.76064 15.544 7.76441 15.7261 7.87207C15.9038 7.9843 16.0004 8.1623 16.0005 8.3623V12.4951C16.0005 13.0239 15.7114 13.489 15.2417 13.7275L10.8687 15.918C10.7903 15.957 10.7022 15.9775 10.6128 15.9775C10.5075 15.9775 10.4024 15.9488 10.3101 15.8926H10.3091C10.1415 15.7913 10.0406 15.6113 10.0405 15.4053V11.2725C10.0406 10.7431 10.3297 10.2764 10.8003 10.0381L15.1724 7.84961L15.1792 7.8457Z" stroke="#AAAEB4"/>
</g>
</svg>
